<svg class="thumb" width="600px" height="600px" viewBox="0,0,600,600" xmlns="http://www.w3.org/2000/svg" xmlns:inkscape="http://www.inkscape.org/namespaces/inkscape" xmlns:sodipodi="http://sodipodi.sourceforge.net/DTD/sodipodi-0.dtd" xmlns:xlink="http://www.w3.org/1999/xlink" xmlns:ns1="http://www.inkscape.org/namespaces/inkscape" xmlns:sketch="http://www.bohemiancoding.com/sketch/ns"><defs></defs><g transform="matrix(1.1038,0,0,1.1038,-65.5904,194.6693)"><g transform="matrix(0.5664,0,0,0.522,106.8691,46.7691)"><svg width="187.0337218024264" height="186.77" viewBox="-5.131860901213205,-5,187.0337218024264,186.77" class="thumb"><defs><linearGradient x1="0" y1="0.5" x2="1" y2="0.5" id="linearGradientSkilw6k4v9ap"><stop offset="0%" stop-color="#083b66"></stop><stop offset="100%" stop-color="#083b66"></stop></linearGradient></defs><g></g><g><circle cx="88.385" cy="88.385" r="88.385" fill="url('#linearGradientSkilw6k4v9ap')" stroke="none" style=""></circle></g></svg></g><g transform="matrix(1.806,0,0,1.7371,158.6679,47.3225)"><svg width="11.389000000000003" height="11.201999999999998" viewBox="52.128,12.331000000000003,11.389000000000003,11.201999999999998"><defs></defs><g></g><g><path fill="none" d="M57.881,18.533c0.19-0.217,0.397-0.416,0.636-0.58c-0.3-0.022-0.563-0.137-0.86-0.328     c-0.175-0.113-0.353-0.202-0.529-0.294" stroke="none" style=""></path></g></svg></g><g transform="matrix(1.806,0,0,1.7371,145.0227,48.191)"><svg width="11.5" height="10.912000000000003" viewBox="44.379999999999995,12.623999999999999,11.5,10.912000000000003"><defs></defs><g></g><g><path fill="none" d="M50.452,18.536c0.113-0.287,0.255-0.559,0.428-0.809c-0.493,0.118-0.963,0.094-1.5-0.103     C49.787,17.869,50.146,18.177,50.452,18.536z" stroke="none" style=""></path></g></svg></g><g transform="matrix(1.806,0,0,1.7371,170.2921,51.0034)"><svg width="10.183999999999997" height="10.276" viewBox="58.81700000000001,14.768,10.183999999999997,10.276"><defs></defs><g></g><g><path fill="none" d="M64.001,19.963c-0.062-0.057-0.124-0.121-0.184-0.195c0.029,0.092,0.063,0.182,0.086,0.276     C63.937,20.019,63.966,19.987,64.001,19.963z" stroke="none" style=""></path></g></svg></g><g transform="matrix(1.806,0,0,1.7371,186.8613,61.3156)"><svg width="10.068000000000012" height="10.126000000000001" viewBox="67.88299999999998,20.419999999999998,10.068000000000012,10.126000000000001"><defs></defs><g></g><g><path fill="none" d="M72.951,25.546c-0.011-0.042-0.02-0.085-0.031-0.126c-0.009,0.041-0.026,0.078-0.037,0.119     C72.906,25.541,72.929,25.542,72.951,25.546z" stroke="none" style=""></path></g></svg></g><g transform="matrix(1.806,0,0,1.7371,178.0894,52.8784)"><svg width="10.363" height="10.341000000000001" viewBox="62.843,15.920000000000002,10.363,10.341000000000001"><defs></defs><g></g><g><path fill="none" d="M68.206,21.196c-0.124-0.089-0.246-0.181-0.363-0.276c0.059,0.109,0.111,0.223,0.154,0.341     C68.064,21.234,68.137,21.219,68.206,21.196z" stroke="none" style=""></path></g></svg></g><g transform="matrix(1.806,0,0,1.7371,132.2804,51.0034)"><svg width="10.681999999999995" height="10.349" viewBox="37.455000000000005,14.61,10.681999999999995,10.349"><defs></defs><g></g><g><path fill="none" d="M43.137,19.765c-0.047-0.006-0.091-0.008-0.144-0.024c-0.187-0.059-0.361-0.092-0.538-0.131     c0.214,0.104,0.423,0.22,0.622,0.349C43.099,19.894,43.112,19.827,43.137,19.765z" stroke="none" style=""></path></g></svg></g><g transform="matrix(1.806,0,0,1.7371,190.76,69.7528)"><svg width="10.293999999999997" height="10.690999999999999" viewBox="70.226,25.224,10.293999999999997,10.690999999999999"><defs></defs><g></g><g><path fill="none" d="M75.482,30.915c-0.012-0.221,0.003-0.452,0.038-0.691c-0.084,0.182-0.18,0.355-0.294,0.518     C75.317,30.792,75.402,30.85,75.482,30.915z" stroke="none" style=""></path></g></svg></g><g transform="matrix(1.806,0,0,1.7371,111.8126,63.1905)"><svg width="10.396999999999998" height="10.347999999999999" viewBox="26.479000000000003,21.494,10.396999999999998,10.347999999999999"><defs></defs><g></g><g><path fill="none" d="M31.85,26.494c-0.119,0.12-0.243,0.235-0.371,0.348c0.131-0.033,0.263-0.062,0.397-0.086     C31.862,26.67,31.854,26.583,31.85,26.494z" stroke="none" style=""></path></g></svg></g><g transform="matrix(1.806,0,0,1.7371,115.7112,58.5032)"><svg width="10.042000000000002" height="10.021" viewBox="28.934999999999995,18.707,10.042000000000002,10.021"><defs></defs><g></g><g><path fill="none" d="M33.977,23.707c-0.014,0.007-0.027,0.015-0.042,0.021c0.014-0.003,0.025-0.007,0.039-0.01     C33.975,23.715,33.976,23.711,33.977,23.707z" stroke="none" style=""></path></g></svg></g><g transform="matrix(1.806,0,0,1.7371,192.7093,74.4402)"><svg width="10.593999999999994" height="10.872999999999998" viewBox="70.96700000000001,27.842000000000006,10.593999999999994,10.872999999999998"><defs></defs><g></g><g><path fill="none" d="M76.561,33.715c-0.163-0.294-0.324-0.583-0.475-0.873c-0.031,0.107-0.07,0.211-0.119,0.309     C76.178,33.324,76.373,33.516,76.561,33.715z" stroke="none" style=""></path></g></svg></g><g transform="matrix(1.806,0,0,1.7371,188.1226,86.1034)"><svg width="14.826000000000008" height="16.867999999999995" viewBox="68.317,34.70100000000001,14.826000000000008,16.867999999999995"><defs><linearGradient x1="0" y1="0.5" x2="1" y2="0.5" id="linearGradientSkilw6k4v9bp"><stop offset="0%" stop-color="#083b66"></stop><stop offset="100%" stop-color="#083b66"></stop></linearGradient></defs><g></g><g><path d="M73.317,44.643c1.047,0.279,0.908,0.985,1.4,1.926c0.005-0.294,0.056-0.576,0.373-0.891     c1.886-1.866,2.9-3.842,3.053-5.977C77.49,42.397,76.16,44.433,73.317,44.643z" fill="url('#linearGradientSkilw6k4v9bp')" stroke="none" style=""></path></g></svg></g><g transform="matrix(1.806,0,0,1.7371,79.7922,35.6869)"><svg width="80.30807945255904" height="87.67775889161295" viewBox="8.899242540690954,5.322241108387059,80.30807945255904,87.67775889161295"><defs><linearGradient x1="0" y1="0.5" x2="1" y2="0.5" id="linearGradientSkilw6k4v9bv"><stop offset="0%" stop-color="#083b66"></stop><stop offset="100%" stop-color="#083b66"></stop></linearGradient></defs><g></g><g><path fill="url('#linearGradientSkilw6k4v9bv')" d="M62.678,11.567c-8.996-1.982-17.959-1.857-26.358,2.286c-9.181,4.528-13.521,12.773-15.686,22.33     c-0.505,2.229-1.631,4.632,0.319,6.891c0.423,0.491-0.394,1.162-0.736,1.706c-1.828,2.905-3.726,5.77-5.461,8.729     c-1.445,2.464-1.136,3.368,1.493,4.209c2.101,0.672,3.138,1.562,2.096,3.902c-0.773,1.737,0.648,2.274,2.063,2.682     c-2.205,1.436-2.263,1.804-0.327,3.33c0.839,0.659,1.051,1.202,0.602,2.208c-2.73,6.112,0.12,9.702,6.835,8.922     c1.596-0.186,3.184-0.435,4.772-0.669c2.778-0.409,3.749,0.276,4.016,3.183c0.207,2.261,0.4,4.514,0.939,6.724     c12.311,0,24.621,0,36.932,0c0.576-0.899-0.317-1.444-0.602-2.059c-2.982-6.45-3.215-13.1-1.696-19.93     c0.562-2.527,1.981-4.5,3.656-6.373c4.479-5.008,7.56-10.65,8.434-17.457C85.812,27.828,76.8,14.68,62.678,11.567z      M76.086,32.842c3.252,2.259,2.058,6.859,2.058,6.859c-0.152,2.135-1.167,4.11-3.053,5.977c-0.317,0.314-0.368,0.597-0.373,0.891     c0.277,0.53,0.449,1.125,0.449,1.765c0,2.117-0.834,3.281-3.834,3.834c-2.146,0.396-2.958-0.667-2.958-0.667     c0,2.762-2.446,6-5.208,6c-1.81,0-3.38-0.971-4.258-2.41c-0.151-0.122-0.299-0.235-0.454-0.368     c-0.329,1.41-0.697,2.678-0.899,3.972c-0.124,0.796-0.372,1.157-1.227,1.133c-0.815-0.022-1.31-0.152-1.562-1.103     c-0.508-1.896-1.222-3.737-1.841-5.604c-0.469-1.415-1.253-2.429-2.289-3.132c-0.842,0.431-1.793,0.679-2.804,0.679     c-3.406,0-6.167-2.761-6.167-6.167c0-0.692,0.119-1.355,0.329-1.977c-1.181,1.217-2.832,1.977-4.662,1.977     c-3.59,0-6.5-2.91-6.5-6.5c0-0.236,0.015-0.47,0.039-0.699c-2.067-0.791-3.539-2.788-3.539-5.134     c0-2.568,1.765-4.721,4.146-5.325c0.128-0.112,0.252-0.228,0.371-0.348c-0.004-0.054-0.017-0.105-0.017-0.161     c0-1.278,0.901-2.345,2.102-2.604c0.015-0.007,0.028-0.015,0.042-0.021C34.568,21.016,36.964,19,39.833,19     c0.941,0,1.829,0.223,2.622,0.609c0.177,0.039,0.352,0.072,0.538,0.131c0.053,0.017,0.097,0.019,0.144,0.024     c0.63-1.616,2.191-2.766,4.03-2.766c0.812,0,1.563,0.237,2.213,0.626c0.537,0.196,1.007,0.221,1.5,0.103     C51.603,16.686,52.804,16,54.167,16c1.179,0,2.229,0.52,2.96,1.331c0.177,0.092,0.354,0.181,0.529,0.294     c0.297,0.191,0.561,0.306,0.86,0.328c0.564-0.39,1.246-0.62,1.983-0.62c1.559,0,2.864,1.026,3.317,2.435     c0.06,0.074,0.121,0.139,0.184,0.195c0.427-0.291,0.943-0.462,1.499-0.462c1.02,0,1.895,0.578,2.343,1.419     c0.117,0.096,0.239,0.188,0.363,0.276c0.357-0.116,0.731-0.195,1.127-0.195c2.024,0,3.666,1.642,3.666,3.666     c0,0.259-0.028,0.51-0.079,0.753c0.012,0.041,0.021,0.084,0.031,0.126c1.625,0.222,2.882,1.601,2.882,3.287     c0,0.498-0.116,0.966-0.312,1.391C75.521,30.224,77.5,31.25,76.086,32.842z" stroke="none" style=""></path></g></svg></g><g transform="matrix(2.0178,0,0,1.9408,76.5156,0.2777)"><svg width="99.41700909446708" height="96.999" viewBox="1.7399999999999967,0.4450000000000003,99.41700909446708,96.999"><defs><linearGradient x1="0" y1="0.5" x2="1" y2="0.5" id="linearGradientSkilw6k4v9c1"><stop offset="0%" stop-color="#a55fc1" stop-opacity="0.72"></stop><stop offset="100%" stop-color="#4c96d7" stop-opacity="0.78"></stop></linearGradient></defs><g></g><g><path d="M93.231,23.886c-1.423,0-2.601,1.015-2.864,2.357l-4.073-0.137c-0.333-1.768-1.883-3.107-3.746-3.107    c-0.238,0-0.47,0.028-0.696,0.07l-1.57-4.711c0.522-0.395,0.863-1.015,0.863-1.72c0-1.193-0.962-2.166-2.158-2.166    c-1.194,0-2.166,0.973-2.166,2.166c0,1.191,0.972,2.161,2.166,2.161c0.113,0,0.223-0.017,0.331-0.033l1.548,4.64    c-1.258,0.624-2.132,1.907-2.132,3.406c0,1.273,0.631,2.394,1.59,3.087l-4.569,6.432c-0.487-0.227-1.026-0.362-1.6-0.362    c-1.951,0-3.544,1.479-3.767,3.376l-8.704-0.873c-0.023-2.368-1.95-4.286-4.324-4.286c-0.291,0-0.574,0.031-0.849,0.086    l-2.448-8.574c1.504-0.819,2.534-2.394,2.534-4.229c0-0.629-0.129-1.227-0.348-1.779l2.509-1.253    c0.742,0.769,1.778,1.251,2.93,1.251c2.249,0,4.077-1.818,4.077-4.07c0-0.262-0.03-0.516-0.077-0.764l5.464-2.276    c0.396,0.53,1.021,0.878,1.733,0.878c1.195,0,2.156-0.971,2.156-2.166c0-1.193-0.961-2.16-2.156-2.16    c-1.196,0-2.168,0.966-2.168,2.16c0,0.111,0.017,0.218,0.033,0.325l-5.397,2.249c-0.658-1.368-2.047-2.318-3.665-2.318    c-0.604,0-1.172,0.14-1.688,0.376L58.53,9.33c0.522-0.395,0.864-1.016,0.864-1.724c0-1.193-0.963-2.161-2.155-2.161    c-1.197,0-2.168,0.968-2.168,2.161c0,1.197,0.971,2.163,2.168,2.163c0.108,0,0.213-0.017,0.317-0.032l1.562,2.747    c-0.911,0.747-1.505,1.866-1.505,3.135c0,0.714,0.2,1.375,0.523,1.958l-2.371,1.184c-0.869-1.28-2.336-2.122-4.002-2.122    c-2.664,0-4.832,2.165-4.832,4.831c0,2.672,2.168,4.835,4.832,4.835c0.463,0,0.902-0.085,1.326-0.207l2.432,8.515    c-1.463,0.694-2.483,2.175-2.483,3.902c0,1.212,0.503,2.305,1.307,3.091l-3.886,4.979c-0.815-0.589-1.807-0.945-2.887-0.945    c-2.401,0-4.405,1.706-4.865,3.969l-6.739-1.152c0.005-0.093,0.028-0.18,0.028-0.274c0-2.67-2.17-4.837-4.833-4.837    c-0.853,0-1.642,0.239-2.337,0.626l-5.299-8.709c1.074-0.733,1.781-1.966,1.781-3.367c0-0.167-0.03-0.327-0.049-0.489l2.346-0.567    c0.412,0.85,1.276,1.441,2.283,1.441c1.401,0,2.543-1.14,2.543-2.544c0-1.404-1.142-2.544-2.543-2.544    c-1.404,0-2.545,1.14-2.545,2.544c0,0.03,0.008,0.058,0.009,0.087l-2.34,0.564c-0.29-0.723-0.78-1.337-1.403-1.786l2.051-4.89    c0.353,0.185,0.748,0.299,1.173,0.299c1.408,0,2.549-1.137,2.549-2.543c0-1.402-1.141-2.541-2.549-2.541    c-1.402,0-2.542,1.138-2.542,2.541c0,0.583,0.204,1.113,0.533,1.541l-2.138,5.097c-0.451-0.172-0.935-0.276-1.446-0.276    c-2.16,0-3.909,1.682-4.044,3.807l-5.37-1.047c-0.02-1.389-1.148-2.507-2.542-2.507c-1.405,0-2.544,1.138-2.544,2.544    c0,1.407,1.139,2.544,2.544,2.544c1.054,0,1.959-0.64,2.345-1.553l5.623,1.097c0.379,1.857,2.02,3.253,3.987,3.253    c0.474,0,0.921-0.097,1.344-0.246l5.386,8.853c-1,0.886-1.643,2.166-1.643,3.607c0,1.335,0.542,2.543,1.419,3.418l-1.614,2.419    c-0.921-0.634-2.037-1.006-3.241-1.006c-3.157,0-5.721,2.563-5.721,5.73c0,3.158,2.564,5.715,5.721,5.715    c0.862,0,1.677-0.195,2.41-0.535l2.747,5.043c-1.807,1.238-2.994,3.316-2.994,5.676c0,1.907,0.782,3.635,2.042,4.881l-4.545,4.716    c-0.653-0.586-1.508-0.952-2.455-0.952c-2.037,0-3.688,1.648-3.688,3.684c0,2.037,1.651,3.691,3.688,3.691    c2.038,0,3.689-1.654,3.689-3.691c0-0.708-0.209-1.362-0.556-1.924l4.669-4.85c1.133,0.823,2.522,1.314,4.028,1.314    c3.171,0,5.836-2.161,6.624-5.084l5.852,0.792c0.151,3.094,2.705,5.56,5.834,5.56c1.348,0,2.584-0.459,3.572-1.223l2.578,4.399    c-0.797,0.675-1.314,1.668-1.314,2.796c0,2.037,1.656,3.693,3.69,3.693c2.039,0,3.69-1.656,3.69-3.693    c0-2.039-1.651-3.682-3.69-3.682c-0.534,0-1.039,0.118-1.497,0.322l-2.675-4.563c0.929-1.035,1.498-2.398,1.498-3.897    c0-1.739-0.763-3.297-1.967-4.369l1.828-2.926c0.672,0.27,1.404,0.422,2.172,0.422c2.645,0,4.882-1.757,5.609-4.164l7.815-1.117    c0.646,0.883,1.683,1.463,2.863,1.463c0.776,0,1.488-0.254,2.073-0.675l3.323,2.791c-0.191,0.357-0.31,0.759-0.31,1.192    c0,1.408,1.138,2.549,2.544,2.549c1.398,0,2.543-1.141,2.543-2.549c0-1.404-1.145-2.545-2.543-2.545    c-0.592,0-1.129,0.21-1.561,0.549l-3.246-2.726c0.456-0.599,0.737-1.338,0.737-2.149c0-1.389-0.803-2.582-1.964-3.17l0.628-2.202    c0.105,0.012,0.209,0.032,0.318,0.032c1.686,0,3.052-1.364,3.052-3.051c0-1.516-1.107-2.767-2.557-3.005l-1.368-8.219    c1.126-0.663,1.891-1.874,1.891-3.273c0-1.159-0.527-2.185-1.342-2.886l4.63-6.515c0.404,0.146,0.835,0.239,1.289,0.239    c0.74,0,1.425-0.22,2.011-0.585l1.562,1.511c-0.243,0.35-0.389,0.774-0.389,1.234c0,1.198,0.964,2.165,2.159,2.165    c1.194,0,2.168-0.966,2.168-2.165c0-1.195-0.974-2.16-2.168-2.16c-0.352,0-0.678,0.091-0.971,0.239l-1.554-1.502    c0.54-0.596,0.887-1.36,0.964-2.208l4.027,0.135c0.229,1.386,1.421,2.444,2.874,2.444c1.613,0,2.93-1.309,2.93-2.924    C96.161,25.198,94.845,23.886,93.231,23.886z M53.282,71.94c-0.889-0.544-1.929-0.862-3.047-0.862    c-2.969,0-5.42,2.221-5.794,5.094l-5.693-0.77c0.028-0.25,0.044-0.503,0.044-0.76c0-3.801-3.077-6.877-6.867-6.877    c-1.063,0-2.067,0.249-2.966,0.681l-2.752-5.048c1.457-1.035,2.409-2.731,2.409-4.654c0-1.584-0.641-3.017-1.677-4.054    l1.629-2.442c0.75,0.479,1.637,0.766,2.594,0.766c2.208,0,4.056-1.496,4.631-3.524l6.819,1.166    c0.031,2.711,2.237,4.899,4.959,4.899c0.738,0,1.432-0.173,2.062-0.463l4.319,5.01c-1.039,1.056-1.682,2.503-1.682,4.102    c0,2.09,1.101,3.922,2.75,4.958L53.282,71.94z M76.389,51.289c-1.415,0.266-2.488,1.506-2.488,2.998    c0,1.209,0.709,2.243,1.729,2.737l-0.614,2.15c-0.197-0.034-0.397-0.062-0.605-0.062c-1.969,0-3.559,1.6-3.559,3.564    c0,0.393,0.078,0.763,0.195,1.115l-7.096,1.015c0.021-0.199,0.031-0.4,0.031-0.604c0-3.232-2.627-5.85-5.86-5.85    c-1.255,0-2.415,0.398-3.367,1.071l-4.211-4.883c1.197-0.905,1.984-2.326,1.984-3.943c0-1.279-0.498-2.433-1.293-3.313    l3.952-5.054c0.641,0.377,1.378,0.609,2.174,0.609c2.045,0,3.75-1.426,4.202-3.333l8.843,0.886    c0.292,1.815,1.854,3.207,3.75,3.207c0.323,0,0.633-0.052,0.933-0.128L76.389,51.289z" fill="url('#linearGradientSkilw6k4v9c1')" stroke="none" style=""></path></g></svg></g><g transform="matrix(0.7281,0,0,0.7003,321.3506,129.7378)"><svg width="65.78710516660635" height="65.70400000000001" viewBox="17.360447485133136,17.743999999999993,65.78710516660635,65.70400000000001"><defs></defs><g></g><g><circle fill="none" cx="50.254" cy="50.596" r="27.852" stroke="none" style=""></circle></g></svg></g><g transform="matrix(0.7281,0,0,0.7003,339.1892,122.0472)"><svg width="16.217261770309214" height="12.700000000000001" viewBox="42.82936910106057,6.048,16.217261770309214,12.700000000000001"><defs><linearGradient x1="0" y1="0.5" x2="1" y2="0.5" id="linearGradientSkilw6k4v9ca"><stop offset="0%" stop-color="#083b66"></stop><stop offset="100%" stop-color="#083b66"></stop></linearGradient></defs><g></g><g><ellipse fill="url('#linearGradientSkilw6k4v9ca')" cx="50.938" cy="12.398" rx="3.104" ry="1.35" stroke="none" style=""></ellipse></g></svg></g><g transform="matrix(0.7281,0,0,0.7003,340.6454,122.5437)"><svg width="12.932000000000002" height="32.029" viewBox="44.385,7.412000000000001,12.932000000000002,32.029"><defs><linearGradient x1="0" y1="0.5" x2="1" y2="0.5" id="linearGradientSkilw6k4v9cg"><stop offset="0%" stop-color="#083b66"></stop><stop offset="100%" stop-color="#083b66"></stop></linearGradient></defs><g></g><g><rect x="49.385" y="12.412" fill="url('#linearGradientSkilw6k4v9cg')" width="2.932" height="22.029" stroke="none" style=""></rect></g></svg></g><g transform="matrix(0.7281,0,0,0.7003,368.9105,146.8957)"><svg width="12.708034133528145" height="16.208" viewBox="82.09898293323593,42.492,12.708034133528145,16.208"><defs><linearGradient x1="0" y1="0.5" x2="1" y2="0.5" id="linearGradientSkilw6k4v9cm"><stop offset="0%" stop-color="#083b66"></stop><stop offset="100%" stop-color="#083b66"></stop></linearGradient></defs><g></g><g><ellipse fill="url('#linearGradientSkilw6k4v9cm')" cx="88.453" cy="50.596" rx="1.352" ry="3.104" stroke="none" style=""></ellipse></g></svg></g><g transform="matrix(0.7281,0,0,0.7003,352.8575,148.2964)"><svg width="32.028999999999996" height="12.933" viewBox="61.41,44.044,32.028999999999996,12.933"><defs><linearGradient x1="0" y1="0.5" x2="1" y2="0.5" id="linearGradientSkilw6k4v9cs"><stop offset="0%" stop-color="#083b66"></stop><stop offset="100%" stop-color="#083b66"></stop></linearGradient></defs><g></g><g><rect x="66.41" y="49.044" fill="url('#linearGradientSkilw6k4v9cs')" width="22.029" height="2.933" stroke="none" style=""></rect></g></svg></g><g transform="matrix(0.7281,0,0,0.7003,341.1385,175.483)"><svg width="16.217261851780997" height="12.701999999999998" viewBox="44.129369074109505,83.532,16.217261851780997,12.701999999999998"><defs><linearGradient x1="0" y1="0.5" x2="1" y2="0.5" id="linearGradientSkilw6k4v9cy"><stop offset="0%" stop-color="#083b66"></stop><stop offset="100%" stop-color="#083b66"></stop></linearGradient></defs><g></g><g><ellipse fill="url('#linearGradientSkilw6k4v9cy')" cx="52.238" cy="89.883" rx="3.104" ry="1.351" stroke="none" style=""></ellipse></g></svg></g><g transform="matrix(0.7281,0,0,0.7003,342.5947,160.98)"><svg width="12.933" height="32.028999999999996" viewBox="45.857,62.84,12.933,32.028999999999996"><defs><linearGradient x1="0" y1="0.5" x2="1" y2="0.5" id="linearGradientSkilw6k4v9d4"><stop offset="0%" stop-color="#083b66"></stop><stop offset="100%" stop-color="#083b66"></stop></linearGradient></defs><g></g><g><rect x="50.857" y="67.84" fill="url('#linearGradientSkilw6k4v9d4')" width="2.933" height="22.029" stroke="none" style=""></rect></g></svg></g><g transform="matrix(0.7281,0,0,0.7003,312.3803,146.8957)"><svg width="12.706031149743518" height="16.208" viewBox="5.2659844251282415,42.492,12.706031149743518,16.208"><defs><linearGradient x1="0" y1="0.5" x2="1" y2="0.5" id="linearGradientSkilw6k4v9da"><stop offset="0%" stop-color="#083b66"></stop><stop offset="100%" stop-color="#083b66"></stop></linearGradient></defs><g></g><g><ellipse fill="url('#linearGradientSkilw6k4v9da')" cx="11.619" cy="50.596" rx="1.351" ry="3.104" stroke="none" style=""></ellipse></g></svg></g><g transform="matrix(0.7281,0,0,0.7003,312.8965,148.2964)"><svg width="32.028999999999996" height="12.932000000000002" viewBox="6.632999999999999,44.217,32.028999999999996,12.932000000000002"><defs><linearGradient x1="0" y1="0.5" x2="1" y2="0.5" id="linearGradientSkilw6k4v9dg"><stop offset="0%" stop-color="#083b66"></stop><stop offset="100%" stop-color="#083b66"></stop></linearGradient></defs><g></g><g><rect x="11.633" y="49.217" fill="url('#linearGradientSkilw6k4v9dg')" width="22.029" height="2.932" stroke="none" style=""></rect></g></svg></g><g transform="matrix(0.7281,0,0,0.7003,360.3851,166.3454)"><svg width="14.794679575064563" height="14.787474676389905" viewBox="70.63340611246772,70.20695696180505,14.794679575064563,14.787474676389905"><defs><linearGradient x1="0" y1="0.5" x2="1" y2="0.5" id="linearGradientSkilw6k4v9dm"><stop offset="0%" stop-color="#083b66"></stop><stop offset="100%" stop-color="#083b66"></stop></linearGradient></defs><g></g><g><ellipse transform="matrix(0.7071 0.7071 -0.7071 0.7071 77.7274 -32.4474)" fill="url('#linearGradientSkilw6k4v9dm')" cx="78.031" cy="77.602" rx="1.351" ry="3.104" stroke="none" style=""></ellipse></g></svg></g><g transform="matrix(0.7281,0,0,0.7003,349.8045,156.1685)"><svg width="27.64850889999999" height="27.64850889999998" viewBox="56.4670405,55.91748700000001,27.64850889999999,27.64850889999998"><defs><linearGradient x1="0" y1="0.5" x2="1" y2="0.5" id="linearGradientSkilw6k4v9ds"><stop offset="0%" stop-color="#083b66"></stop><stop offset="100%" stop-color="#083b66"></stop></linearGradient></defs><g></g><g><rect x="68.827" y="58.728" transform="matrix(0.7071 -0.7071 0.7071 0.7071 -28.7271 70.131)" fill="url('#linearGradientSkilw6k4v9ds')" width="2.931" height="22.028" stroke="none" style=""></rect></g></svg></g><g transform="matrix(0.7281,0,0,0.7003,320.4241,168.2204)"><svg width="14.787013255250926" height="14.795141070974282" viewBox="16.093135172374524,72.13926506451286,14.787013255250926,14.795141070974282"><defs><linearGradient x1="0" y1="0.5" x2="1" y2="0.5" id="linearGradientSkilw6k4v9dy"><stop offset="0%" stop-color="#083b66"></stop><stop offset="100%" stop-color="#083b66"></stop></linearGradient></defs><g></g><g><ellipse transform="matrix(-0.7072 0.707 -0.707 -0.7072 96.3286 119.1808)" fill="url('#linearGradientSkilw6k4v9dy')" cx="23.486" cy="79.537" rx="1.351" ry="3.104" stroke="none" style=""></ellipse></g></svg></g><g transform="matrix(0.7281,0,0,0.7003,321.5394,158.0435)"><svg width="27.647306199999996" height="27.65112579999998" viewBox="17.52152360000001,57.97419800000001,27.647306199999996,27.65112579999998"><defs><linearGradient x1="0" y1="0.5" x2="1" y2="0.5" id="linearGradientSkilw6k4v9e4"><stop offset="0%" stop-color="#083b66"></stop><stop offset="100%" stop-color="#083b66"></stop></linearGradient></defs><g></g><g><rect x="29.878" y="60.785" transform="matrix(0.7072 0.707 -0.707 0.7072 59.9413 -1.1367)" fill="url('#linearGradientSkilw6k4v9e4')" width="2.931" height="22.029" stroke="none" style=""></rect></g></svg></g><g transform="matrix(0.7281,0,0,0.7003,320.4241,126.9717)"><svg width="14.79365124309998" height="14.787372295661957" viewBox="16.08711337845001,14.439421252169023,14.79365124309998,14.787372295661957"><defs><linearGradient x1="0" y1="0.5" x2="1" y2="0.5" id="linearGradientSkilw6k4v9ea"><stop offset="0%" stop-color="#083b66"></stop><stop offset="100%" stop-color="#083b66"></stop></linearGradient></defs><g></g><g><ellipse transform="matrix(-0.7072 -0.707 0.707 -0.7072 24.6566 53.8773)" fill="url('#linearGradientSkilw6k4v9ea')" cx="23.485" cy="21.833" rx="1.35" ry="3.104" stroke="none" style=""></ellipse></g></svg></g><g transform="matrix(0.7281,0,0,0.7003,321.5394,128.0444)"><svg width="27.649923100000002" height="27.649923100000006" viewBox="17.397388399999997,15.868740800000001,27.649923100000002,27.649923100000006"><defs><linearGradient x1="0" y1="0.5" x2="1" y2="0.5" id="linearGradientSkilw6k4v9eg"><stop offset="0%" stop-color="#083b66"></stop><stop offset="100%" stop-color="#083b66"></stop></linearGradient></defs><g></g><g><rect x="29.756" y="18.679" transform="matrix(-0.7071 0.7071 -0.7071 -0.7071 74.2957 28.6129)" fill="url('#linearGradientSkilw6k4v9eg')" width="2.932" height="22.029" stroke="none" style=""></rect></g></svg></g><g transform="matrix(0.7281,0,0,0.7003,359.4105,127.9092)"><svg width="14.787936140879026" height="14.794218127003244" viewBox="69.62264752557905,14.920087337595795,14.787936140879026,14.794218127003244"><defs><linearGradient x1="0" y1="0.5" x2="1" y2="0.5" id="linearGradientSkilw6k4v9em"><stop offset="0%" stop-color="#083b66"></stop><stop offset="100%" stop-color="#083b66"></stop></linearGradient></defs><g></g><g><ellipse transform="matrix(0.707 -0.7072 0.7072 0.707 6.7816 61.0055)" fill="url('#linearGradientSkilw6k4v9em')" cx="77.018" cy="22.318" rx="1.351" ry="3.104" stroke="none" style=""></ellipse></g></svg></g><g transform="matrix(0.7281,0,0,0.7003,348.8298,128.9819)"><svg width="27.645396400000003" height="27.653035600000003" viewBox="55.33737779999999,16.229177699999994,27.645396400000003,27.653035600000003"><defs><linearGradient x1="0" y1="0.5" x2="1" y2="0.5" id="linearGradientSkilw6k4v9es"><stop offset="0%" stop-color="#083b66"></stop><stop offset="100%" stop-color="#083b66"></stop></linearGradient></defs><g></g><g><rect x="67.697" y="19.038" transform="matrix(-0.7073 -0.7069 0.7069 -0.7073 96.8346 100.2028)" fill="url('#linearGradientSkilw6k4v9es')" width="2.931" height="22.029" stroke="none" style=""></rect></g></svg></g><g transform="matrix(0.7281,0,0,0.7003,313.9656,137.8712)"><svg width="13.336402142767884" height="15.890958541577291" viewBox="8.127170428616058,28.451475229211347,13.336402142767884,15.890958541577291"><defs><linearGradient x1="0" y1="0.5" x2="1" y2="0.5" id="linearGradientSkilw6k4v9ey"><stop offset="0%" stop-color="#083b66"></stop><stop offset="100%" stop-color="#083b66"></stop></linearGradient></defs><g></g><g><ellipse transform="matrix(-0.9366 -0.3503 0.3503 -0.9366 15.9032 75.6672)" fill="url('#linearGradientSkilw6k4v9ey')" cx="14.795" cy="36.395" rx="1.35" ry="3.104" stroke="none" style=""></ellipse></g></svg></g><g transform="matrix(0.7281,0,0,0.7003,316.1846,138.9328)"><svg width="31.660764299999997" height="20.456554399999995" viewBox="9.267694900000002,30.111534300000002,31.660764299999997,20.456554399999995"><defs><linearGradient x1="0" y1="0.5" x2="1" y2="0.5" id="linearGradientSkilw6k4v9f4"><stop offset="0%" stop-color="#083b66"></stop><stop offset="100%" stop-color="#083b66"></stop></linearGradient></defs><g></g><g><rect x="23.629" y="29.324" transform="matrix(-0.35 0.9367 -0.9367 -0.35 71.6664 30.9518)" fill="url('#linearGradientSkilw6k4v9f4')" width="2.932" height="22.029" stroke="none" style=""></rect></g></svg></g><g transform="matrix(0.7281,0,0,0.7003,349.2998,122.6345)"><svg width="15.890545316077493" height="13.338427403327266" viewBox="55.764398341961254,7.9690432983363735,15.890545316077493,13.338427403327266"><defs><linearGradient x1="0" y1="0.5" x2="1" y2="0.5" id="linearGradientSkilw6k4v9fa"><stop offset="0%" stop-color="#083b66"></stop><stop offset="100%" stop-color="#083b66"></stop></linearGradient></defs><g></g><g><ellipse transform="matrix(0.3505 -0.9365 0.9365 0.3505 27.6713 69.1765)" fill="url('#linearGradientSkilw6k4v9fa')" cx="63.714" cy="14.636" rx="1.351" ry="3.104" stroke="none" style=""></ellipse></g></svg></g><g transform="matrix(0.7281,0,0,0.7003,344.5556,123.8314)"><svg width="20.46037369999999" height="31.661937199999997" viewBox="49.53853710000001,9.107654099999998,20.46037369999999,31.661937199999997"><defs><linearGradient x1="0" y1="0.5" x2="1" y2="0.5" id="linearGradientSkilw6k4v9fg"><stop offset="0%" stop-color="#083b66"></stop><stop offset="100%" stop-color="#083b66"></stop></linearGradient></defs><g></g><g><rect x="58.306" y="13.925" transform="matrix(-0.9367 -0.3502 0.3502 -0.9367 107.0227 69.2319)" fill="url('#linearGradientSkilw6k4v9fg')" width="2.931" height="22.03" stroke="none" style=""></rect></g></svg></g><g transform="matrix(0.7281,0,0,0.7003,365.6225,157.5581)"><svg width="13.337215234352456" height="15.891045320818833" viewBox="79.06146878282378,56.89912973959058,13.337215234352456,15.891045320818833"><defs><linearGradient x1="0" y1="0.5" x2="1" y2="0.5" id="linearGradientSkilw6k4v9fm"><stop offset="0%" stop-color="#083b66"></stop><stop offset="100%" stop-color="#083b66"></stop></linearGradient></defs><g></g><g><ellipse transform="matrix(0.9366 0.3505 -0.3505 0.9366 28.1688 -25.9345)" fill="url('#linearGradientSkilw6k4v9fm')" cx="85.724" cy="64.844" rx="1.35" ry="3.104" stroke="none" style=""></ellipse></g></svg></g><g transform="matrix(0.7281,0,0,0.7003,352.2469,152.9948)"><svg width="31.664290500000007" height="20.450532100000004" viewBox="59.59220660000001,50.672167,31.664290500000007,20.450532100000004"><defs><linearGradient x1="0" y1="0.5" x2="1" y2="0.5" id="linearGradientSkilw6k4v9fs"><stop offset="0%" stop-color="#083b66"></stop><stop offset="100%" stop-color="#083b66"></stop></linearGradient></defs><g></g><g><rect x="73.956" y="49.886" transform="matrix(0.3497 -0.9369 0.9369 0.3497 -8.0084 110.2634)" fill="url('#linearGradientSkilw6k4v9fs')" width="2.932" height="22.029" stroke="none" style=""></rect></g></svg></g><g transform="matrix(0.7281,0,0,0.7003,329.8067,173.2579)"><svg width="15.891001925178998" height="13.336808654944619" viewBox="28.855818237410503,79.9292088725277,15.891001925178998,13.336808654944619"><defs><linearGradient x1="0" y1="0.5" x2="1" y2="0.5" id="linearGradientSkilw6k4v9fy"><stop offset="0%" stop-color="#083b66"></stop><stop offset="100%" stop-color="#083b66"></stop></linearGradient></defs><g></g><g><ellipse transform="matrix(-0.3504 0.9366 -0.9366 -0.3504 130.8063 82.4735)" fill="url('#linearGradientSkilw6k4v9fy')" cx="36.802" cy="86.6" rx="1.35" ry="3.104" stroke="none" style=""></ellipse></g></svg></g><g transform="matrix(0.7281,0,0,0.7003,330.9104,159.4552)"><svg width="20.464722400000007" height="31.6587976" viewBox="30.508088199999996,60.4735374,20.464722400000007,31.6587976"><defs><linearGradient x1="0" y1="0.5" x2="1" y2="0.5" id="linearGradientSkilw6k4v9g4"><stop offset="0%" stop-color="#083b66"></stop><stop offset="100%" stop-color="#083b66"></stop></linearGradient></defs><g></g><g><rect x="39.275" y="65.289" transform="matrix(0.9366 0.3504 -0.3504 0.9366 29.319 -9.4381)" fill="url('#linearGradientSkilw6k4v9g4')" width="2.932" height="22.028" stroke="none" style=""></rect></g></svg></g><g transform="matrix(0.7281,0,0,0.7003,367.5718,136.9337)"><svg width="13.559181675713276" height="15.763457230772524" viewBox="80.48913516214337,27.76869288461375,13.559181675713276,15.763457230772524"><defs><linearGradient x1="0" y1="0.5" x2="1" y2="0.5" id="linearGradientSkilw6k4v9ga"><stop offset="0%" stop-color="#083b66"></stop><stop offset="100%" stop-color="#083b66"></stop></linearGradient></defs><g></g><g><ellipse transform="matrix(0.91 -0.4145 0.4145 0.91 -6.9258 39.3854)" fill="url('#linearGradientSkilw6k4v9ga')" cx="87.273" cy="35.648" rx="1.351" ry="3.104" stroke="none" style=""></ellipse></g></svg></g><g transform="matrix(0.7281,0,0,0.7003,353.2216,138.5826)"><svg width="31.25946950000001" height="21.797401500000007" viewBox="61.569621999999995,29.24305599999998,31.25946950000001,21.797401500000007"><defs><linearGradient x1="0" y1="0.5" x2="1" y2="0.5" id="linearGradientSkilw6k4v9gg"><stop offset="0%" stop-color="#083b66"></stop><stop offset="100%" stop-color="#083b66"></stop></linearGradient></defs><g></g><g><rect x="75.733" y="29.125" transform="matrix(-0.4145 -0.91 0.91 -0.4145 72.6721 127.0298)" fill="url('#linearGradientSkilw6k4v9gg')" width="2.931" height="22.027" stroke="none" style=""></rect></g></svg></g><g transform="matrix(0.7281,0,0,0.7003,353.1985,172.3204)"><svg width="15.762844671735024" height="13.55908516687731" viewBox="60.1795028641325,78.84299651656136,15.762844671735024,13.55908516687731"><defs><linearGradient x1="0" y1="0.5" x2="1" y2="0.5" id="linearGradientSkilw6k4v9gm"><stop offset="0%" stop-color="#083b66"></stop><stop offset="100%" stop-color="#083b66"></stop></linearGradient></defs><g></g><g><ellipse transform="matrix(0.4148 0.9099 -0.9099 0.4148 117.7385 -11.823)" fill="url('#linearGradientSkilw6k4v9gm')" cx="68.061" cy="85.624" rx="1.35" ry="3.104" stroke="none" style=""></ellipse></g></svg></g><g transform="matrix(0.7281,0,0,0.7003,347.1155,159.4552)"><svg width="21.803961" height="31.263200400000002" viewBox="52.668503900000005,59.92188490000001,21.803961,31.263200400000002"><defs><linearGradient x1="0" y1="0.5" x2="1" y2="0.5" id="linearGradientSkilw6k4v9gs"><stop offset="0%" stop-color="#083b66"></stop><stop offset="100%" stop-color="#083b66"></stop></linearGradient></defs><g></g><g><rect x="62.101" y="64.537" transform="matrix(0.91 -0.4147 0.4147 0.91 -25.6069 33.1624)" fill="url('#linearGradientSkilw6k4v9gs')" width="2.932" height="22.03" stroke="none" style=""></rect></g></svg></g><g transform="matrix(0.7281,0,0,0.7003,313.9656,157.5581)"><svg width="13.55963051141412" height="15.763511204380542" viewBox="7.2399965442929375,57.53436639780973,13.55963051141412,15.763511204380542"><defs><linearGradient x1="0" y1="0.5" x2="1" y2="0.5" id="linearGradientSkilw6k4v9gy"><stop offset="0%" stop-color="#083b66"></stop><stop offset="100%" stop-color="#083b66"></stop></linearGradient></defs><g></g><g><ellipse transform="matrix(-0.91 0.4146 -0.4146 -0.91 53.8999 119.1329)" fill="url('#linearGradientSkilw6k4v9gy')" cx="14.02" cy="65.417" rx="1.351" ry="3.104" stroke="none" style=""></ellipse></g></svg></g><g transform="matrix(0.7281,0,0,0.7003,315.2099,152.6447)"><svg width="31.261793500000003" height="21.796402000000008" viewBox="8.457917600000002,50.0242819,31.261793500000003,21.796402000000008"><defs><linearGradient x1="0" y1="0.5" x2="1" y2="0.5" id="linearGradientSkilw6k4v9h4"><stop offset="0%" stop-color="#083b66"></stop><stop offset="100%" stop-color="#083b66"></stop></linearGradient></defs><g></g><g><rect x="22.623" y="49.909" transform="matrix(0.4144 0.9101 -0.9101 0.4144 69.5519 13.7528)" fill="url('#linearGradientSkilw6k4v9h4')" width="2.932" height="22.027" stroke="none" style=""></rect></g></svg></g><g transform="matrix(0.7281,0,0,0.7003,328.832,123.572)"><svg width="15.76345723014704" height="13.559181626009748" viewBox="28.110871884926482,8.698682686995125,15.76345723014704,13.559181626009748"><defs><linearGradient x1="0" y1="0.5" x2="1" y2="0.5" id="linearGradientSkilw6k4v9ha"><stop offset="0%" stop-color="#083b66"></stop><stop offset="100%" stop-color="#083b66"></stop></linearGradient></defs><g></g><g><ellipse transform="matrix(-0.4145 -0.91 0.91 -0.4145 36.8268 54.6453)" fill="url('#linearGradientSkilw6k4v9ha')" cx="35.991" cy="15.477" rx="1.351" ry="3.104" stroke="none" style=""></ellipse></g></svg></g><g transform="matrix(0.7281,0,0,0.7003,330.5463,123.8314)"><svg width="21.7993526" height="31.265312599999998" viewBox="29.585235799999992,9.914328299999998,21.7993526,31.265312599999998"><defs><linearGradient x1="0" y1="0.5" x2="1" y2="0.5" id="linearGradientSkilw6k4v9hg"><stop offset="0%" stop-color="#083b66"></stop><stop offset="100%" stop-color="#083b66"></stop></linearGradient></defs><g></g><g><rect x="39.021" y="14.531" transform="matrix(-0.9101 0.4145 -0.4145 -0.9101 87.9207 32.0152)" fill="url('#linearGradientSkilw6k4v9hg')" width="2.931" height="22.031" stroke="none" style=""></rect></g></svg></g><g transform="matrix(0.2386,0,0,0.2295,323.7979,132.0917)"><svg width="186.614" height="186.614" viewBox="-5,-4.987,186.614,186.614"><defs><linearGradient x1="0" y1="0.5" x2="1" y2="0.5" id="linearGradientSkilw6k4v9hm"><stop offset="0%" stop-color="#083b66"></stop><stop offset="100%" stop-color="#083b66"></stop></linearGradient></defs><g></g><g><path d="M88.307,0.013C39.536,0.013,0,39.549,0,88.32c0,48.77,39.536,88.307,88.307,88.307
	c48.77,0,88.307-39.537,88.307-88.307C176.613,39.549,137.076,0.013,88.307,0.013z M88.307,163.341
	c-41.433,0-75.021-33.589-75.021-75.021c0-41.433,33.587-75.021,75.021-75.021c41.432,0,75.021,33.587,75.021,75.021
	C163.327,129.752,129.738,163.341,88.307,163.341z" stroke="none" fill="url('#linearGradientSkilw6k4v9hm')" style=""></path></g></svg></g><g transform="matrix(0.2112,0,0,0.2031,326.3498,134.5463)"><svg width="186.614" height="186.614" viewBox="-5,-4.987,186.614,186.614"><defs><linearGradient x1="0" y1="0.5" x2="1" y2="0.5" id="linearGradientSkilw6k4v9hs"><stop offset="0%" stop-color="#083b66"></stop><stop offset="100%" stop-color="#083b66"></stop></linearGradient></defs><g></g><g><path d="M88.307,0.013C39.536,0.013,0,39.549,0,88.32c0,48.77,39.536,88.307,88.307,88.307
	c48.77,0,88.307-39.537,88.307-88.307C176.613,39.549,137.076,0.013,88.307,0.013z M88.307,163.341
	c-41.433,0-75.021-33.589-75.021-75.021c0-41.433,33.587-75.021,75.021-75.021c41.432,0,75.021,33.587,75.021,75.021
	C163.327,129.752,129.738,163.341,88.307,163.341z" stroke="none" fill="url('#linearGradientSkilw6k4v9hs')" style=""></path></g></svg></g><g transform="matrix(0.185,0,0,0.1779,328.7876,136.891)"><svg width="186.614" height="186.614" viewBox="-5,-4.987,186.614,186.614"><defs><linearGradient x1="0" y1="0.5" x2="1" y2="0.5" id="linearGradientSkilw6k4v9hy"><stop offset="0%" stop-color="#083b66"></stop><stop offset="100%" stop-color="#083b66"></stop></linearGradient></defs><g></g><g><path d="M88.307,0.013C39.536,0.013,0,39.549,0,88.32c0,48.77,39.536,88.307,88.307,88.307
	c48.77,0,88.307-39.537,88.307-88.307C176.613,39.549,137.076,0.013,88.307,0.013z M88.307,163.341
	c-41.433,0-75.021-33.589-75.021-75.021c0-41.433,33.587-75.021,75.021-75.021c41.432,0,75.021,33.587,75.021,75.021
	C163.327,129.752,129.738,163.341,88.307,163.341z" stroke="none" fill="url('#linearGradientSkilw6k4v9hy')" style=""></path></g></svg></g><g transform="matrix(0.1609,0,0,0.1547,331.028,139.0459)"><svg width="186.614" height="186.614" viewBox="-5,-4.987,186.614,186.614"><defs><linearGradient x1="0" y1="0.5" x2="1" y2="0.5" id="linearGradientSkilw6k4v9i4"><stop offset="0%" stop-color="#083b66"></stop><stop offset="100%" stop-color="#083b66"></stop></linearGradient></defs><g></g><g><path d="M88.307,0.013C39.536,0.013,0,39.549,0,88.32c0,48.77,39.536,88.307,88.307,88.307
	c48.77,0,88.307-39.537,88.307-88.307C176.613,39.549,137.076,0.013,88.307,0.013z M88.307,163.341
	c-41.433,0-75.021-33.589-75.021-75.021c0-41.433,33.587-75.021,75.021-75.021c41.432,0,75.021,33.587,75.021,75.021
	C163.327,129.752,129.738,163.341,88.307,163.341z" stroke="none" fill="url('#linearGradientSkilw6k4v9i4')" style=""></path></g></svg></g><g transform="matrix(0.1477,0,0,0.1421,332.25,140.2213)"><svg width="186.614" height="186.614" viewBox="-5,-4.987,186.614,186.614"><defs><linearGradient x1="0" y1="0.5" x2="1" y2="0.5" id="linearGradientSkilw6k4v9ia"><stop offset="0%" stop-color="#083b66"></stop><stop offset="100%" stop-color="#083b66"></stop></linearGradient></defs><g></g><g><path d="M88.307,0.013C39.536,0.013,0,39.549,0,88.32c0,48.77,39.536,88.307,88.307,88.307
	c48.77,0,88.307-39.537,88.307-88.307C176.613,39.549,137.076,0.013,88.307,0.013z M88.307,163.341
	c-41.433,0-75.021-33.589-75.021-75.021c0-41.433,33.587-75.021,75.021-75.021c41.432,0,75.021,33.587,75.021,75.021
	C163.327,129.752,129.738,163.341,88.307,163.341z" stroke="none" fill="url('#linearGradientSkilw6k4v9ia')" style=""></path></g></svg></g><g transform="matrix(0.85,0,0,0.8175,250.5476,104.4644)"><svg width="383.70000000000005" height="177" style="overflow: visible;"><defs><linearGradient x1="0" y1="0.5" x2="1" y2="0.5" id="linearGradientSkilw6k4v9ii"><stop offset="0%" stop-color="#083b66"></stop><stop offset="100%" stop-color="#083b66"></stop></linearGradient></defs><g transform="matrix(1,0,0,1,0,87.75)"><path d="M 62.3 0L 56.9-6.3Q 52.8-3.1  47.95-1.3Q 43.1 0.5  37.5 0.5L 37.5 0.5Q 30.1 0.5  23.95-2.6Q 17.8-5.7  13.4-10.7Q 9-15.7  6.6-22.2Q 4.2-28.7  4.2-35.5L 4.2-35.5Q 4.2-42.6  6.75-49.1Q 9.3-55.6  13.8-60.6Q 18.3-65.6  24.4-68.55Q 30.5-71.5  37.6-71.5L 37.6-71.5Q 45-71.5  51.15-68.35Q 57.3-65.2  61.65-60.1Q 66-55  68.4-48.55Q 70.8-42.1  70.8-35.4L 70.8-35.4Q 70.8-28.1  68.15-21.5Q 65.5-14.9  60.8-9.9L 60.8-9.9L 69.2 0L 62.3 0ZM 37.5-5.8L 37.5-5.8Q 42-5.8  45.8-7.25Q 49.6-8.7  52.8-11.2L 52.8-11.2L 43.9-21.8L 50.8-21.8L 56.5-15Q 60-19.2  61.9-24.55Q 63.8-29.9  63.8-35.5L 63.8-35.5Q 63.8-41.3  61.85-46.65Q 59.9-52  56.4-56.1Q 52.9-60.2  48.1-62.7Q 43.3-65.2  37.5-65.2L 37.5-65.2Q 31.5-65.2  26.6-62.65Q 21.7-60.1  18.3-55.9Q 14.9-51.7  13.05-46.35Q 11.2-41  11.2-35.5L 11.2-35.5Q 11.2-29.7  13.1-24.35Q 15-19  18.5-14.85Q 22-10.7  26.8-8.25Q 31.6-5.8  37.5-5.8ZM 202.69999999999993-30.5L 202.69999999999993 0L 195.89999999999995 0L 195.89999999999995-29.1Q 195.89999999999995-38.4  193.14999999999995-42.6Q 190.39999999999995-46.8  184.69999999999993-46.8L 184.69999999999993-46.8Q 181.69999999999996-46.8  178.69999999999996-45.7Q 175.69999999999996-44.6  173.14999999999995-42.6Q 170.59999999999994-40.6  168.59999999999994-37.85Q 166.59999999999994-35.1  165.69999999999996-31.9L 165.69999999999996-31.9L 165.69999999999996 0L 158.89999999999995 0L 158.89999999999995-52.1L 165.09999999999994-52.1L 165.09999999999994-40.3Q 168.29999999999995-46  174.24999999999994-49.5Q 180.19999999999996-53  187.19999999999993-53L 187.19999999999993-53Q 191.49999999999994-53  194.49999999999994-51.4Q 197.49999999999994-49.8  199.29999999999995-46.9Q 201.09999999999997-44  201.89999999999995-39.8Q 202.69999999999993-35.6  202.69999999999993-30.5L 202.69999999999993-30.5ZM 239.89999999999992-8L 241.69999999999993-2.5Q 241.09999999999994-2.2  239.94999999999993-1.7Q 238.79999999999993-1.2  237.29999999999993-0.7Q 235.79999999999993-0.2  233.89999999999992 0.2Q 231.99999999999994 0.6  229.89999999999992 0.6L 229.89999999999992 0.6Q 227.69999999999993 0.6  225.69999999999993 0Q 223.69999999999993-0.6  222.19999999999993-1.85Q 220.69999999999993-3.1  219.79999999999993-5Q 218.89999999999992-6.9  218.89999999999992-9.4L 218.89999999999992-9.4L 218.89999999999992-46.7L 211.69999999999993-46.7L 211.69999999999993-52.1L 218.89999999999992-52.1L 218.89999999999992-69.7L 225.69999999999993-69.7L 225.69999999999993-52.1L 237.69999999999993-52.1L 237.69999999999993-46.7L 225.69999999999993-46.7L 225.69999999999993-11.3Q 225.89999999999992-8.4  227.74999999999994-7.05Q 229.59999999999994-5.7  231.99999999999994-5.7L 231.99999999999994-5.7Q 234.89999999999992-5.7  237.09999999999994-6.65Q 239.29999999999993-7.6  239.89999999999992-8L 239.89999999999992-8ZM 263.29999999999995 1L 263.29999999999995 1Q 259.5999999999999 1  256.44999999999993-0.25Q 253.29999999999993-1.5  250.94999999999993-3.7Q 248.59999999999994-5.9  247.29999999999993-8.85Q 245.99999999999994-11.8  245.99999999999994-15.2L 245.99999999999994-15.2Q 245.99999999999994-18.6  247.59999999999994-21.5Q 249.19999999999993-24.4  252.09999999999994-26.5Q 254.99999999999994-28.6  258.99999999999994-29.75Q 262.99999999999994-30.9  267.79999999999995-30.9L 267.79999999999995-30.9Q 271.79999999999995-30.9  275.8999999999999-30.2Q 279.99999999999994-29.5  283.19999999999993-28.2L 283.19999999999993-28.2L 283.19999999999993-32.9Q 283.19999999999993-39.8  279.29999999999995-43.85Q 275.3999999999999-47.9  268.49999999999994-47.9L 268.49999999999994-47.9Q 264.49999999999994-47.9  260.29999999999995-46.3Q 256.0999999999999-44.7  251.79999999999993-41.7L 251.79999999999993-41.7L 249.39999999999992-46.2Q 259.49999999999994-53  268.99999999999994-53L 268.99999999999994-53Q 278.79999999999995-53  284.3999999999999-47.5Q 289.99999999999994-42  289.99999999999994-32.3L 289.99999999999994-32.3L 289.99999999999994-8.8Q 289.99999999999994-6  292.49999999999994-6L 292.49999999999994-6L 292.49999999999994 0Q 290.79999999999995 0.3  289.8999999999999 0.3L 289.8999999999999 0.3Q 287.29999999999995 0.3  285.8499999999999-1Q 284.3999999999999-2.3  284.29999999999995-4.6L 284.29999999999995-4.6L 284.0999999999999-8.7Q 280.49999999999994-4  275.04999999999995-1.5Q 269.5999999999999 1  263.29999999999995 1ZM 264.8999999999999-4.2L 264.8999999999999-4.2Q 270.19999999999993-4.2  274.6499999999999-6.2Q 279.0999999999999-8.2  281.3999999999999-11.5L 281.3999999999999-11.5Q 282.29999999999995-12.4  282.74999999999994-13.45Q 283.19999999999993-14.5  283.19999999999993-15.4L 283.19999999999993-15.4L 283.19999999999993-23.9Q 279.79999999999995-25.2  276.1499999999999-25.9Q 272.49999999999994-26.6  268.69999999999993-26.6L 268.69999999999993-26.6Q 261.49999999999994-26.6  256.99999999999994-23.6Q 252.49999999999994-20.6  252.49999999999994-15.7L 252.49999999999994-15.7Q 252.49999999999994-13.3  253.44999999999993-11.2Q 254.39999999999992-9.1  256.04999999999995-7.55Q 257.69999999999993-6  259.99999999999994-5.1Q 262.29999999999995-4.2  264.8999999999999-4.2ZM 349.29999999999995 0L 341.8999999999999 0L 322.69999999999993-26.7L 311.49999999999994-16.3L 311.49999999999994 0L 304.69999999999993 0L 304.69999999999993-73L 311.49999999999994-73L 311.49999999999994-23.4L 340.79999999999995-52L 348.49999999999994-52L 327.19999999999993-30.7L 349.29999999999995 0ZM 380.8999999999999-8L 382.69999999999993-2.5Q 382.0999999999999-2.2  380.94999999999993-1.7Q 379.79999999999995-1.2  378.29999999999995-0.7Q 376.79999999999995-0.2  374.8999999999999 0.2Q 372.99999999999994 0.6  370.8999999999999 0.6L 370.8999999999999 0.6Q 368.69999999999993 0.6  366.69999999999993 0Q 364.69999999999993-0.6  363.19999999999993-1.85Q 361.69999999999993-3.1  360.79999999999995-5Q 359.8999999999999-6.9  359.8999999999999-9.4L 359.8999999999999-9.4L 359.8999999999999-46.7L 352.69999999999993-46.7L 352.69999999999993-52.1L 359.8999999999999-52.1L 359.8999999999999-69.7L 366.69999999999993-69.7L 366.69999999999993-52.1L 378.69999999999993-52.1L 378.69999999999993-46.7L 366.69999999999993-46.7L 366.69999999999993-11.3Q 366.8999999999999-8.4  368.74999999999994-7.05Q 370.5999999999999-5.7  372.99999999999994-5.7L 372.99999999999994-5.7Q 375.8999999999999-5.7  378.0999999999999-6.65Q 380.29999999999995-7.6  380.8999999999999-8L 380.8999999999999-8Z" data-textpath="Q   ntakt" data-text-anchor="middle" data-font-size="100" data-letterspacing="0" data-side="left" data-offset="0.5" data-dx="0" data-dy="0" data-xmlspace="preserve" data-href="" data-font="Raleway" data-font-src="/Content/clientfonts/raleway.woff" data-font-scale="contain" transform="translate(0,0)" data-x="0" data-y="0" fill="url('#linearGradientSkilw6k4v9ii')"></path></g></svg></g></g></svg>